<?xml version="1.0" encoding="utf-8"?>
<!-- Generator: Adobe Illustrator 16.0.0, SVG Export Plug-In . SVG Version: 6.00 Build 0)  -->
<!DOCTYPE svg PUBLIC "-//W3C//DTD SVG 1.1//EN" "http://www.w3.org/Graphics/SVG/1.1/DTD/svg11.dtd">
<svg version="1.1" id="圖層_1" xmlns="http://www.w3.org/2000/svg" xmlns:xlink="http://www.w3.org/1999/xlink" x="0px" y="0px"
	 width="20.002px" height="20px" viewBox="0 0 20.002 20" enable-background="new 0 0 20.002 20" xml:space="preserve">
<g>
	<g>
		<path fill="#424242" d="M19.513,6.909c1.338,4.121-0.128,8.635-3.633,11.181s-8.253,2.546-11.757,0S-0.85,11.03,0.49,6.909
			C1.83,2.789,5.669,0,10.001,0S18.173,2.789,19.513,6.909z M10.001,0.446c-4.139,0-7.808,2.665-9.086,6.602
			c-1.28,3.937,0.122,8.25,3.47,10.681c3.35,2.435,7.884,2.435,11.232,0c3.35-2.431,4.75-6.744,3.47-10.681
			C17.809,3.111,14.141,0.446,10.001,0.446z"/>
	</g>
	<g>
		<path fill="#424242" d="M8.023,7.6h-0.71c-0.11,0-0.196,0.088-0.196,0.197v4.406c0,0.11,0.086,0.198,0.196,0.198h0.71
			c0.108,0,0.196-0.088,0.196-0.198V7.796C8.22,7.688,8.132,7.6,8.023,7.6"/>
		<path fill="#424242" d="M12.906,7.6h-0.711c-0.108,0-0.196,0.088-0.196,0.197v2.618L9.98,7.688
			C9.976,7.68,9.969,7.675,9.965,7.667c-0.001,0-0.001-0.001-0.001-0.001C9.96,7.662,9.956,7.658,9.952,7.654
			C9.95,7.653,9.948,7.652,9.948,7.651C9.945,7.648,9.941,7.645,9.938,7.642C9.936,7.641,9.935,7.639,9.931,7.638
			C9.929,7.636,9.925,7.633,9.922,7.631c-0.001,0-0.004-0.003-0.005-0.004C9.913,7.625,9.909,7.623,9.905,7.622
			C9.904,7.621,9.902,7.619,9.898,7.618C9.896,7.617,9.892,7.616,9.888,7.613C9.886,7.612,9.884,7.612,9.882,7.611
			C9.879,7.609,9.874,7.608,9.87,7.608c-0.002,0-0.005-0.001-0.007-0.001C9.859,7.605,9.854,7.604,9.851,7.603
			c-0.002,0-0.004,0-0.007-0.001c-0.004,0-0.006,0-0.011,0C9.829,7.6,9.826,7.6,9.824,7.6c-0.004,0-0.006,0-0.008,0h-0.71
			C8.998,7.6,8.91,7.688,8.91,7.796v4.406c0,0.11,0.088,0.198,0.196,0.198h0.71c0.108,0,0.197-0.088,0.197-0.198V9.586l2.021,2.73
			c0.016,0.02,0.032,0.036,0.051,0.049c0.001,0,0.002,0.001,0.002,0.001c0.005,0.002,0.008,0.005,0.012,0.007
			c0.003,0.001,0.005,0.003,0.007,0.003c0.004,0.002,0.006,0.004,0.009,0.005s0.007,0.002,0.01,0.005
			c0.001,0,0.005,0.001,0.006,0.001c0.004,0.002,0.008,0.002,0.014,0.004c0.001,0,0.001,0,0.002,0
			c0.017,0.004,0.034,0.007,0.05,0.007h0.711c0.108,0,0.196-0.088,0.196-0.198V7.796C13.103,7.688,13.015,7.6,12.906,7.6"/>
		<path fill="#424242" d="M6.313,11.297H4.385v-3.5c0-0.109-0.087-0.197-0.197-0.197H3.479c-0.109,0-0.196,0.088-0.196,0.197v4.406
			l0,0c0,0.054,0.021,0.102,0.055,0.137c0.001,0.001,0.001,0.003,0.003,0.004c0,0,0.003,0.001,0.003,0.002
			C3.379,12.379,3.426,12.4,3.479,12.4l0,0h2.834c0.109,0,0.197-0.088,0.197-0.198v-0.709C6.51,11.385,6.422,11.297,6.313,11.297"/>
		<path fill="#424242" d="M16.823,8.703c0.108,0,0.195-0.088,0.195-0.197V7.797c0-0.109-0.087-0.197-0.195-0.197h-2.834l0,0
			c-0.053,0-0.101,0.021-0.137,0.056c-0.002,0-0.002,0-0.002,0.002c-0.001,0-0.002,0.002-0.004,0.003
			c-0.034,0.035-0.055,0.083-0.055,0.135v0v4.405l0,0c0,0.054,0.021,0.102,0.056,0.137c0.001,0.001,0.002,0.003,0.003,0.003
			c0,0.001,0.002,0.002,0.003,0.003c0.035,0.034,0.084,0.055,0.136,0.055l0,0h2.834c0.108,0,0.195-0.088,0.195-0.198v-0.709
			c0-0.108-0.087-0.196-0.195-0.196h-1.927v-0.745h1.927c0.108,0,0.195-0.088,0.195-0.196V9.645c0-0.108-0.087-0.196-0.195-0.196
			h-1.927V8.703H16.823z"/>
	</g>
</g>
</svg>
